<svg width="24" height="24" viewBox="0 0 24 24" fill="none" xmlns="http://www.w3.org/2000/svg">
<path fill-rule="evenodd" clip-rule="evenodd" d="M3.94997 11.9999C5.30546 15.0285 8.40082 17.1429 12 17.1429C15.5992 17.1429 18.6945 15.0285 20.05 12.0001C18.6945 8.9715 15.5992 6.85714 12 6.85714C8.40081 6.85714 5.30549 8.97145 3.94997 11.9999ZM21 12.0001C19.595 8.48801 16.0951 6 12 6C7.90486 6 4.405 8.48795 3 11.9999C4.40497 15.512 7.90486 18 12 18C16.0951 18 19.595 15.5121 21 12.0001Z" fill="black"/>
<path fill-rule="evenodd" clip-rule="evenodd" d="M12 14.5714C13.4548 14.5714 14.6341 13.4202 14.6341 12C14.6341 10.5798 13.4548 9.42857 12 9.42857C10.5452 9.42857 9.36589 10.5798 9.36589 12C9.36589 13.4202 10.5452 14.5714 12 14.5714ZM12 15.4286C13.9397 15.4286 15.5122 13.8935 15.5122 12C15.5122 10.1065 13.9397 8.57143 12 8.57143C10.0603 8.57143 8.48785 10.1065 8.48785 12C8.48785 13.8935 10.0603 15.4286 12 15.4286Z" fill="black"/>
</svg>
