<svg width="24" height="24" viewBox="0 0 24 24" fill="none" xmlns="http://www.w3.org/2000/svg">
<path d="M3.46167 8C3.46167 8 6.69242 11.9037 12.2308 11.7894C17.7693 11.6751 20.5385 8 20.5385 8" stroke="black" stroke-linecap="round"/>
<path fill-rule="evenodd" clip-rule="evenodd" d="M3.07022 12.3035L5.37789 9L6.16065 9.43771L3.85298 12.7412C3.71788 12.9346 3.43314 12.9934 3.21698 12.8725C3.00083 12.7516 2.93512 12.4969 3.07022 12.3035Z" fill="black"/>
<path fill-rule="evenodd" clip-rule="evenodd" d="M20.9298 12.3035L18.6221 9L17.8393 9.43771L20.147 12.7412C20.2821 12.9346 20.5669 12.9934 20.783 12.8725C20.9992 12.7516 21.0649 12.4969 20.9298 12.3035Z" fill="black"/>
<path fill-rule="evenodd" clip-rule="evenodd" d="M8.54948 14.4974L9.47255 10.781L10.3736 10.9602L9.45057 14.6766C9.39527 14.8992 9.14873 15.0396 8.8999 14.9901C8.65107 14.9406 8.49418 14.72 8.54948 14.4974Z" fill="black"/>
<path fill-rule="evenodd" clip-rule="evenodd" d="M15.9121 14.4974L14.989 10.781L14.0879 10.9602L15.011 14.6766C15.0663 14.8992 15.3128 15.0396 15.5616 14.9901C15.8105 14.9406 15.9674 14.72 15.9121 14.4974Z" fill="black"/>
</svg>
