<svg width="133" height="133" viewBox="0 0 133 133" fill="none" xmlns="http://www.w3.org/2000/svg">
<g filter="url(#filter0_d_701_6282)">
<circle cx="54.5" cy="48.5" r="36.5" fill="#6789E1" fill-opacity="0.4" shape-rendering="crispEdges"/>
</g>
<circle cx="54.5" cy="48.5" r="23" fill="#6CC9F2" stroke="white" stroke-width="3"/>
<g filter="url(#filter1_d_701_6282)">
<path d="M52 38C49.38 38 47.25 40.13 47.25 42.75C47.25 45.32 49.26 47.4 51.88 47.49C51.96 47.48 52.04 47.48 52.1 47.49C52.12 47.49 52.13 47.49 52.15 47.49C52.16 47.49 52.16 47.49 52.17 47.49C54.73 47.4 56.74 45.32 56.75 42.75C56.75 40.13 54.62 38 52 38Z" fill="white"/>
<path d="M57.08 50.1499C54.29 48.2899 49.74 48.2899 46.93 50.1499C45.66 50.9999 44.96 52.1499 44.96 53.3799C44.96 54.6099 45.66 55.7499 46.92 56.5899C48.32 57.5299 50.16 57.9999 52 57.9999C53.84 57.9999 55.68 57.5299 57.08 56.5899C58.34 55.7399 59.04 54.5999 59.04 53.3599C59.03 52.1299 58.34 50.9899 57.08 50.1499Z" fill="white"/>
<path d="M62.9904 43.3401C63.1504 45.2801 61.7704 46.9801 59.8604 47.2101C59.8504 47.2101 59.8504 47.2101 59.8404 47.2101H59.8104C59.7504 47.2101 59.6904 47.2101 59.6404 47.2301C58.6704 47.2801 57.7804 46.9701 57.1104 46.4001C58.1404 45.4801 58.7304 44.1001 58.6104 42.6001C58.5404 41.7901 58.2604 41.0501 57.8404 40.4201C58.2204 40.2301 58.6604 40.1101 59.1104 40.0701C61.0704 39.9001 62.8204 41.3601 62.9904 43.3401Z" fill="white"/>
<path d="M64.9902 52.5899C64.9102 53.5599 64.2902 54.3999 63.2502 54.9699C62.2502 55.5199 60.9902 55.7799 59.7402 55.7499C60.4602 55.0999 60.8802 54.2899 60.9602 53.4299C61.0602 52.1899 60.4702 50.9999 59.2902 50.0499C58.6202 49.5199 57.8402 49.0999 56.9902 48.7899C59.2002 48.1499 61.9802 48.5799 63.6902 49.9599C64.6102 50.6999 65.0802 51.6299 64.9902 52.5899Z" fill="white"/>
</g>
<defs>
<filter id="filter0_d_701_6282" x="0" y="0" width="133" height="133" filterUnits="userSpaceOnUse" color-interpolation-filters="sRGB">
<feFlood flood-opacity="0" result="BackgroundImageFix"/>
<feColorMatrix in="SourceAlpha" type="matrix" values="0 0 0 0 0 0 0 0 0 0 0 0 0 0 0 0 0 0 127 0" result="hardAlpha"/>
<feOffset dx="12" dy="18"/>
<feGaussianBlur stdDeviation="15"/>
<feComposite in2="hardAlpha" operator="out"/>
<feColorMatrix type="matrix" values="0 0 0 0 0.173785 0 0 0 0 0.220937 0 0 0 0 0.291667 0 0 0 0.2 0"/>
<feBlend mode="normal" in2="BackgroundImageFix" result="effect1_dropShadow_701_6282"/>
<feBlend mode="normal" in="SourceGraphic" in2="effect1_dropShadow_701_6282" result="shape"/>
</filter>
<filter id="filter1_d_701_6282" x="28" y="26" width="64" height="64" filterUnits="userSpaceOnUse" color-interpolation-filters="sRGB">
<feFlood flood-opacity="0" result="BackgroundImageFix"/>
<feColorMatrix in="SourceAlpha" type="matrix" values="0 0 0 0 0 0 0 0 0 0 0 0 0 0 0 0 0 0 127 0" result="hardAlpha"/>
<feOffset dx="5" dy="10"/>
<feGaussianBlur stdDeviation="10"/>
<feComposite in2="hardAlpha" operator="out"/>
<feColorMatrix type="matrix" values="0 0 0 0 0.173785 0 0 0 0 0.220937 0 0 0 0 0.291667 0 0 0 0.4 0"/>
<feBlend mode="normal" in2="BackgroundImageFix" result="effect1_dropShadow_701_6282"/>
<feBlend mode="normal" in="SourceGraphic" in2="effect1_dropShadow_701_6282" result="shape"/>
</filter>
</defs>
</svg>
