<svg width="38" height="57" viewBox="0 0 38 57" fill="none" xmlns="http://www.w3.org/2000/svg">
<mask id="path-1-outside-1_1103_6567" maskUnits="userSpaceOnUse" x="0" y="0" width="38" height="57" fill="black">
<rect fill="white" width="38" height="57"/>
<path fill-rule="evenodd" clip-rule="evenodd" d="M36 19C36 22.1977 35.1171 25.1891 33.5819 27.7439L19.0003 53L4.43141 27.766C2.88795 25.2064 2 22.2069 2 19C2 9.61116 9.61116 2 19 2C28.3888 2 36 9.61116 36 19ZM19.0003 27.4999C23.6947 27.4999 27.5003 23.6943 27.5003 18.9999C27.5003 14.3054 23.6947 10.4999 19.0003 10.4999C14.3059 10.4999 10.5003 14.3054 10.5003 18.9999C10.5003 23.6943 14.3059 27.4999 19.0003 27.4999Z"/>
</mask>
<path fill-rule="evenodd" clip-rule="evenodd" d="M36 19C36 22.1977 35.1171 25.1891 33.5819 27.7439L19.0003 53L4.43141 27.766C2.88795 25.2064 2 22.2069 2 19C2 9.61116 9.61116 2 19 2C28.3888 2 36 9.61116 36 19ZM19.0003 27.4999C23.6947 27.4999 27.5003 23.6943 27.5003 18.9999C27.5003 14.3054 23.6947 10.4999 19.0003 10.4999C14.3059 10.4999 10.5003 14.3054 10.5003 18.9999C10.5003 23.6943 14.3059 27.4999 19.0003 27.4999Z" fill="#6CC9F2"/>
<path d="M33.5819 27.7439L31.8676 26.7137L31.8586 26.7287L31.8498 26.7439L33.5819 27.7439ZM19.0003 53L17.2682 54L19.0003 57L20.7323 54L19.0003 53ZM4.43141 27.766L6.16346 26.766L6.15394 26.7495L6.14412 26.7332L4.43141 27.766ZM35.2962 28.7741C37.0131 25.9169 38 22.5706 38 19H34C34 21.8247 33.2211 24.4613 31.8676 26.7137L35.2962 28.7741ZM20.7323 54L35.3139 28.7439L31.8498 26.7439L17.2682 52L20.7323 54ZM2.69935 28.766L17.2682 54L20.7323 52L6.16346 26.766L2.69935 28.766ZM0 19C0 22.5809 0.992562 25.9362 2.71869 28.7987L6.14412 26.7332C4.78334 24.4765 4 21.8328 4 19H0ZM19 0C8.50659 0 0 8.50659 0 19H4C4 10.7157 10.7157 4 19 4V0ZM38 19C38 8.50659 29.4934 0 19 0V4C27.2843 4 34 10.7157 34 19H38ZM25.5003 18.9999C25.5003 22.5897 22.5901 25.4999 19.0003 25.4999V29.4999C24.7993 29.4999 29.5003 24.7989 29.5003 18.9999H25.5003ZM19.0003 12.4999C22.5901 12.4999 25.5003 15.41 25.5003 18.9999H29.5003C29.5003 13.2009 24.7993 8.49986 19.0003 8.49986V12.4999ZM12.5003 18.9999C12.5003 15.41 15.4104 12.4999 19.0003 12.4999V8.49986C13.2013 8.49986 8.50027 13.2009 8.50027 18.9999H12.5003ZM19.0003 25.4999C15.4104 25.4999 12.5003 22.5897 12.5003 18.9999H8.50027C8.50027 24.7989 13.2013 29.4999 19.0003 29.4999V25.4999Z" fill="white" mask="url(#path-1-outside-1_1103_6567)"/>
</svg>
