<svg width="60" height="60" viewBox="0 0 60 60" fill="none" xmlns="http://www.w3.org/2000/svg">
<path d="M7.92578 18.5999L30.0007 31.3748L51.9257 18.6748" stroke="#6CC9F2" stroke-width="3" stroke-linecap="round" stroke-linejoin="round"/>
<path d="M30.001 54.0251V31.3501" stroke="#6CC9F2" stroke-width="3" stroke-linecap="round" stroke-linejoin="round"/>
<path d="M5.97559 37.0751V22.925C5.97559 19.475 8.45054 15.2751 11.4755 13.6001L24.8255 6.2C27.6755 4.6 32.3256 4.6 35.1756 6.2L48.5256 13.6001C51.5506 15.2751 54.0255 19.475 54.0255 22.925V37.0751C54.0255 37.2001 54.0256 37.3 54.0006 37.425C52.2506 35.9 50.0005 35 47.5005 35C45.1505 35 42.9755 35.8251 41.2505 37.2001C38.9505 39.0251 37.5005 41.85 37.5005 45C37.5005 46.875 38.0255 48.65 38.9505 50.15C39.1755 50.55 39.4505 50.9251 39.7505 51.2751L35.1756 53.8001C32.3256 55.4001 27.6755 55.4001 24.8255 53.8001L11.4755 46.4" stroke="#6CC9F2" stroke-width="3" stroke-linecap="round" stroke-linejoin="round"/>
<path d="M57.4999 44.7751C57.5499 46.6501 57.0499 48.4251 56.1499 49.9501C55.6499 50.8501 54.9749 51.6752 54.2249 52.3502C52.4999 53.9502 50.2249 54.9252 47.6999 55.0002C44.0499 55.0752 40.8249 53.2002 39.0499 50.3252C38.0999 48.8502 37.5249 47.0752 37.4999 45.2002C37.4249 42.0502 38.8249 39.2002 41.0749 37.3252C42.7749 35.9252 44.925 35.0502 47.275 35.0002C52.8 34.8752 57.3749 39.2501 57.4999 44.7751Z" stroke="#6CC9F2" stroke-width="3" stroke-miterlimit="10" stroke-linecap="round" stroke-linejoin="round"/>
<path d="M43.5996 45.0752L46.1246 47.4751L51.3496 42.425" stroke="#6CC9F2" stroke-width="3" stroke-linecap="round" stroke-linejoin="round"/>
</svg>
