<svg width="60" height="60" viewBox="0 0 60 60" fill="none" xmlns="http://www.w3.org/2000/svg">
<path d="M24.7249 37.05L28.3498 39.8499C28.8248 40.3249 29.8748 40.55 30.5748 40.55H34.9998C36.3998 40.55 37.9248 39.5001 38.2748 38.1001L41.0748 29.55C41.6498 27.925 40.5998 26.5 38.8498 26.5H34.1749C33.4749 26.5 32.8998 25.9252 32.9998 25.1002L33.5748 21.3502C33.7998 20.3002 33.0998 19.1251 32.0498 18.7751C31.1248 18.4251 29.9498 18.9 29.4748 19.6L24.6748 26.7249" stroke="#6CC9F2" stroke-width="3" stroke-miterlimit="10"/>
<path d="M18.75 37.0499V25.6C18.75 23.95 19.45 23.375 21.1 23.375H22.275C23.9 23.375 24.625 23.95 24.625 25.6V37.0499C24.625 38.6749 23.925 39.275 22.275 39.275H21.1C19.45 39.275 18.75 38.6999 18.75 37.0499Z" stroke="#6CC9F2" stroke-width="3" stroke-linecap="round" stroke-linejoin="round"/>
<path d="M36.65 50.025L32.8501 53.8251C31.3001 55.3751 28.75 55.3751 27.2 53.8251L23.4 50.025C22.75 49.375 21.4751 48.8501 20.5751 48.8501H15.2C13 48.8501 11.2001 47.0499 11.2001 44.8499V39.4751C11.2001 38.5751 10.675 37.3001 10.025 36.6501L6.225 32.85C4.675 31.3 4.675 28.75 6.225 27.2L10.025 23.4C10.675 22.75 11.2001 21.475 11.2001 20.575V15.1999C11.2001 12.9999 13 11.2 15.2 11.2" stroke="#6CC9F2" stroke-width="3" stroke-linecap="round" stroke-linejoin="round"/>
<path d="M23.3506 9.97476L27.1506 6.17471C28.7006 4.62471 31.2506 4.62471 32.8006 6.17471L36.6006 9.97476C37.2506 10.6248 38.5256 11.1497 39.4256 11.1497H44.8006C47.0006 11.1497 48.8006 12.9499 48.8006 15.1499V20.5247C48.8006 21.4247 49.3256 22.6997 49.9756 23.3497L53.7756 27.1497C55.3256 28.6997 55.3256 31.2498 53.7756 32.7998L49.9756 36.5998C49.3256 37.2498 48.8006 38.5248 48.8006 39.4248V44.7999C48.8006 46.9999 47.0006 48.7998 44.8006 48.7998" stroke="#6CC9F2" stroke-width="3" stroke-linecap="round" stroke-linejoin="round"/>
</svg>
