<svg width="60" height="60" viewBox="0 0 60 60" fill="none" xmlns="http://www.w3.org/2000/svg">
<path d="M40.625 8.60001C44.8 11.8 47.5 16.825 47.5 22.5C47.5 26.125 46.425 29.45 44.575 32.225C41.875 36.225 37.6 39.05 32.625 39.775C31.775 39.925 30.9 40 30 40C29.1 40 28.225 39.925 27.375 39.775C22.4 39.05 18.125 36.225 15.425 32.225C13.575 29.45 12.5 26.125 12.5 22.5C12.5 12.825 20.325 5 30 5" stroke="#6CC9F2" stroke-width="3" stroke-linecap="round" stroke-linejoin="round"/>
<path d="M53.1247 46.1748L48.9997 47.1497C48.0747 47.3747 47.3497 48.0748 47.1497 48.9998L46.2747 52.6748C45.7997 54.6748 43.2497 55.2748 41.9247 53.6998L29.9997 39.9998L18.0747 53.7247C16.7497 55.2997 14.1997 54.6997 13.7247 52.6997L12.8497 49.0247C12.6247 48.0997 11.8997 47.3748 10.9997 47.1748L6.87471 46.1998C4.97471 45.7498 4.29971 43.3747 5.67471 41.9997L15.4247 32.2498C18.1247 36.2498 22.3997 39.0748 27.3747 39.7998C28.2247 39.9498 29.0997 40.0248 29.9997 40.0248C30.8997 40.0248 31.7747 39.9498 32.6247 39.7998C37.5997 39.0748 41.8747 36.2498 44.5747 32.2498L54.3247 41.9997C55.6997 43.3497 55.0247 45.7248 53.1247 46.1748Z" stroke="#6CC9F2" stroke-width="3" stroke-linecap="round" stroke-linejoin="round"/>
<path d="M31.4499 14.95L32.9249 17.9C33.1249 18.3 33.6499 18.7 34.1249 18.775L36.7999 19.225C38.4999 19.5 38.8999 20.75 37.6749 21.975L35.5999 24.05C35.2499 24.4 35.0499 25.075 35.1749 25.575L35.7749 28.15C36.2499 30.175 35.1749 30.9749 33.3749 29.8999L30.8749 28.425C30.4249 28.15 29.6749 28.15 29.2249 28.425L26.7249 29.8999C24.9249 30.9499 23.8499 30.175 24.3249 28.15L24.9249 25.575C25.0249 25.1 24.8499 24.4 24.4999 24.05L22.4249 21.975C21.1999 20.75 21.5999 19.525 23.2999 19.225L25.9749 18.775C26.4249 18.7 26.9499 18.3 27.1499 17.9L28.6249 14.95C29.3499 13.35 30.6499 13.35 31.4499 14.95Z" stroke="#6CC9F2" stroke-width="3" stroke-linecap="round" stroke-linejoin="round"/>
</svg>
