<svg width="54" height="51" viewBox="0 0 54 51" fill="none" xmlns="http://www.w3.org/2000/svg">
<path d="M34.5 25.5974C34.5 21.4474 31.15 18.0974 27 18.0974C22.85 18.0974 19.5 21.4474 19.5 25.5974C19.5 29.7474 22.85 33.0974 27 33.0974C28.025 33.0974 29.025 32.8974 29.925 32.4974" stroke="#6CC9F2" stroke-width="3" stroke-miterlimit="10" stroke-linecap="round" stroke-linejoin="round"/>
<path d="M14.1992 47.0475L16.9242 48.6225C18.8992 49.7975 21.4492 49.0975 22.6242 47.1225L22.8992 46.6475C25.1492 42.7225 28.8492 42.7225 31.1242 46.6475L31.3992 47.1225C32.5742 49.0975 35.1242 49.7975 37.0992 48.6225L41.4242 46.1475C43.6992 44.8475 44.4742 41.9225 43.1742 39.6725C40.8992 35.7475 42.7492 32.5475 47.2742 32.5475C49.8742 32.5475 52.0242 30.4225 52.0242 27.7975V23.3975C52.0242 20.7975 49.8992 18.6475 47.2742 18.6475C44.7492 18.6475 43.0492 17.6475 42.4492 16.0725C41.9742 14.8475 42.1742 13.2475 43.1742 11.5225C44.4742 9.24746 43.6992 6.34746 41.4242 5.04746L39.3992 3.89746" stroke="#6CC9F2" stroke-width="3" stroke-miterlimit="10" stroke-linecap="round" stroke-linejoin="round"/>
<path d="M31.1 4.54725C28.85 8.47225 25.15 8.47225 22.875 4.54725L22.6 4.07225C21.45 2.09725 18.9 1.39725 16.925 2.57225L12.6 5.04725C10.325 6.34725 9.55 9.27225 10.85 11.5473C13.125 15.4473 11.275 18.6473 6.75 18.6473C4.15 18.6473 2 20.7723 2 23.3973V27.7973C2 30.3972 4.125 32.5472 6.75 32.5472C11.275 32.5472 13.125 35.7472 10.85 39.6722" stroke="#6CC9F2" stroke-width="3" stroke-miterlimit="10" stroke-linecap="round" stroke-linejoin="round"/>
</svg>
