<svg width="24" height="25" fill="none" xmlns="http://www.w3.org/2000/svg"><path d="M23.999 4.249a.97.97 0 00-.063-.313.945.945 0 00-.132-.233.992.992 0 00-.032-.038l-.015-.018-.014-.014a.926.926 0 00-.101-.091l-.038-.029-.035-.022a.943.943 0 00-.041-.025l-.038-.02c-.014-.007-.027-.014-.042-.02l-.042-.017-.04-.015a.909.909 0 00-.047-.013l-.04-.01a.927.927 0 00-.182-.022l-.02-.001H.904a.904.904 0 00-.182.022l-.043.011-.044.013-.042.016c-.014.005-.028.01-.04.016-.016.006-.03.013-.044.02l-.036.02a.9.9 0 00-.043.025c-.011.007-.023.014-.033.022a.87.87 0 00-.14.12l-.014.014-.015.018a.966.966 0 00-.164.27.852.852 0 00-.06.263.896.896 0 00-.003.05L0 4.272v15.692a1.848 1.848 0 001.846 1.846h20.308A1.849 1.849 0 0024 19.963V4.271l-.001-.022zm-1.845 15.714H1.846V6.369l9.53 8.736a.924.924 0 001.248 0l9.53-8.736.001 13.594h-.001z" fill="#fff"/></svg>