<svg width="22" height="24" viewBox="0 0 22 24" fill="none" xmlns="http://www.w3.org/2000/svg">
<path d="M12.699 11.9996L20.8231 3.40063C21.3923 2.79484 21.3923 1.81003 20.8231 1.20434C20.251 0.598553 19.318 0.598553 18.7488 1.20434L10.6247 9.8033L2.50337 1.20434C1.93124 0.598553 1.00114 0.598553 0.4291 1.20434C-0.142937 1.81013 -0.143033 2.79494 0.4291 3.40063L8.55034 11.9996L0.4291 20.6016C-0.143033 21.2042 -0.143033 22.1922 0.4291 22.7979C1.00123 23.4005 1.93134 23.4005 2.50337 22.7979L10.6246 14.1959L18.7488 22.7979C19.3179 23.4005 20.251 23.4005 20.823 22.7979C21.3922 22.1921 21.3922 21.2042 20.823 20.6016L12.699 11.9996Z" fill="#292D32" fill-opacity="0.6"/>
</svg>
