<svg width="17" height="18" viewBox="0 0 17 18" fill="none" xmlns="http://www.w3.org/2000/svg">
<path d="M10.1592 8.99967L16.6585 2.1205C17.1138 1.63587 17.1138 0.848022 16.6585 0.363473C16.2008 -0.121158 15.4544 -0.121158 14.9991 0.363473L8.49977 7.24264L2.0027 0.363473C1.54499 -0.121158 0.800909 -0.121158 0.34328 0.363473C-0.114349 0.848103 -0.114427 1.63595 0.34328 2.1205L6.84027 8.99967L0.34328 15.8813C-0.114427 16.3634 -0.114427 17.1538 0.34328 17.6383C0.800987 18.1204 1.54507 18.1204 2.0027 17.6383L8.49969 10.7567L14.999 17.6383C15.4543 18.1204 16.2008 18.1204 16.6584 17.6383C17.1137 17.1537 17.1137 16.3634 16.6584 15.8813L10.1592 8.99967Z" fill="#292D32" fill-opacity="0.6"/>
</svg>
