<svg width="24" height="24" fill="none" xmlns="http://www.w3.org/2000/svg"><path d="M14.25 5.703V3.297c0-.748-.339-1.05-1.18-1.05h-2.14c-.841 0-1.18.302-1.18 1.05v2.4c0 .753.339 1.05 1.18 1.05h2.14c.841.005 1.18-.297 1.18-1.044zm0 7.503V10.8c0-.748-.339-1.05-1.18-1.05h-2.14c-.841 0-1.18.302-1.18 1.05v2.4c0 .753.339 1.05 1.18 1.05h2.14c.841.005 1.18-.297 1.18-1.044zm0 7.503v-2.407c0-.747-.339-1.05-1.18-1.05h-2.14c-.841 0-1.18.303-1.18 1.05v2.401c0 .753.339 1.05 1.18 1.05h2.14c.841.005 1.18-.297 1.18-1.044zm7.5-15.006V3.297c0-.748-.339-1.05-1.18-1.05h-2.14c-.841 0-1.18.302-1.18 1.05v2.4c0 .753.339 1.05 1.18 1.05h2.14c.841.005 1.18-.297 1.18-1.044zm0 7.503V10.8c0-.748-.339-1.05-1.18-1.05h-2.14c-.841 0-1.18.302-1.18 1.05v2.4c0 .753.339 1.05 1.18 1.05h2.14c.841.005 1.18-.297 1.18-1.044zm0 7.503v-2.407c0-.747-.339-1.05-1.18-1.05h-2.14c-.841 0-1.18.303-1.18 1.05v2.401c0 .753.339 1.05 1.18 1.05h2.14c.841.005 1.18-.297 1.18-1.044zm-15-15.006V3.297c0-.748-.339-1.05-1.18-1.05H3.43c-.841 0-1.18.302-1.18 1.05v2.4c0 .753.339 1.05 1.18 1.05h2.14c.841.005 1.18-.297 1.18-1.044zm0 7.503V10.8c0-.748-.339-1.05-1.18-1.05H3.43c-.841 0-1.18.302-1.18 1.05v2.4c0 .753.339 1.05 1.18 1.05h2.14c.841.005 1.18-.297 1.18-1.044zm0 7.503v-2.407c0-.747-.339-1.05-1.18-1.05H3.43c-.841 0-1.18.303-1.18 1.05v2.401c0 .753.339 1.05 1.18 1.05h2.14c.841.005 1.18-.297 1.18-1.044z" fill="#6CC9F2" stroke="#6CC9F2" stroke-linecap="round" stroke-linejoin="round"/></svg>