<?xml version="1.0" standalone="no"?>
<!DOCTYPE svg PUBLIC "-//W3C//DTD SVG 20010904//EN"
 "http://www.w3.org/TR/2001/REC-SVG-20010904/DTD/svg10.dtd">
<svg version="1.0" xmlns="http://www.w3.org/2000/svg"
 width="1868.000000pt" height="1868.000000pt" viewBox="0 0 1868.000000 1868.000000"
 preserveAspectRatio="xMidYMid meet">
<metadata>
Created by potrace 1.14, written by Peter Selinger 2001-2017
</metadata>
<g transform="translate(0.000000,1868.000000) scale(0.100000,-0.100000)"
fill="#000000" stroke="none">
<path d="M10007 15704 c-1 -1 -78 -5 -172 -9 -213 -8 -346 -17 -485 -30 -25
-2 -74 -7 -110 -10 -64 -6 -119 -11 -215 -21 -44 -4 -125 -14 -245 -29 -38 -5
-239 -34 -280 -40 -199 -31 -298 -48 -360 -60 -41 -8 -86 -16 -100 -19 -337
-58 -919 -198 -1375 -332 -625 -184 -1506 -511 -2027 -753 -36 -17 -68 -31
-71 -31 -15 0 -470 -219 -762 -366 -241 -121 -383 -196 -590 -309 -22 -12 -76
-41 -120 -65 -44 -24 -97 -54 -117 -67 -21 -13 -39 -23 -42 -23 -3 0 -461
-267 -528 -309 -14 -9 -48 -29 -75 -45 -479 -289 -1032 -657 -1214 -808 -24
-20 -64 -52 -87 -72 l-44 -36 3072 0 3072 0 75 48 c41 26 85 54 98 62 30 19
204 128 230 143 302 183 557 323 860 472 521 256 965 435 1525 613 159 51 634
178 735 198 11 2 81 17 155 33 74 16 153 32 175 35 22 4 72 13 110 21 39 7 88
16 110 20 22 3 69 10 105 16 104 16 112 17 165 24 28 3 61 8 75 10 14 2 48 6
75 10 28 3 66 7 85 10 66 8 155 17 200 20 25 2 79 7 120 10 388 33 1038 38
1360 10 41 -3 110 -8 265 -20 33 -3 76 -7 95 -10 19 -3 60 -7 90 -10 30 -3 91
-10 135 -16 44 -6 91 -12 105 -13 14 -2 43 -6 65 -10 22 -4 58 -9 79 -11 39
-5 213 -35 316 -55 30 -6 69 -13 85 -16 68 -12 353 -76 487 -109 524 -131
1185 -362 1498 -524 425 -219 935 -537 1650 -1030 85 -59 253 -173 383 -261
12 -8 -79 85 -203 206 -408 402 -557 546 -710 685 -82 74 -136 123 -315 278
-93 81 -414 338 -475 381 -19 14 -42 31 -50 38 -77 69 -592 424 -805 555 -33
21 -67 42 -75 47 -33 21 -203 122 -248 147 -275 155 -385 213 -617 328 -530
260 -957 432 -1505 607 -177 56 -590 170 -700 193 -8 2 -46 11 -85 20 -38 9
-135 30 -215 46 -138 29 -168 35 -215 43 -11 2 -58 11 -105 20 -47 8 -101 18
-120 21 -19 2 -46 6 -60 9 -14 2 -47 7 -73 11 -27 4 -58 8 -70 11 -12 2 -39 6
-62 9 -22 3 -51 8 -65 10 -14 2 -52 7 -84 10 -33 3 -73 8 -90 10 -17 2 -53 7
-81 10 -27 3 -63 8 -80 10 -16 2 -66 7 -110 11 -44 4 -96 8 -115 10 -117 10
-220 17 -460 30 -117 6 -837 13 -843 8z"/>
<path d="M5918 11805 c-2 -2 -30 -7 -63 -10 -113 -14 -349 -82 -521 -152 -221
-91 -541 -199 -759 -258 -106 -28 -289 -75 -310 -79 -11 -2 -47 -11 -80 -19
-60 -15 -256 -58 -285 -62 -210 -29 -445 -113 -561 -201 -175 -134 -214 -338
-96 -514 42 -62 154 -169 215 -205 29 -16 52 -33 52 -36 0 -3 -8 -14 -17 -25
-10 -10 -52 -60 -93 -109 -41 -50 -77 -92 -80 -95 -3 -3 -30 -34 -60 -70 -98
-116 -105 -123 -120 -140 -8 -9 -44 -49 -79 -90 -36 -41 -70 -79 -75 -85 -6
-5 -29 -30 -50 -55 -183 -211 -561 -601 -791 -815 -65 -60 -123 -115 -129
-120 -139 -131 -533 -441 -634 -500 -9 -5 -19 -13 -22 -16 -11 -12 -191 -119
-280 -166 -107 -56 -283 -129 -332 -138 -18 -3 -64 -7 -103 -10 -105 -7 -138
-13 -200 -36 -125 -47 -175 -143 -170 -324 11 -356 140 -598 340 -632 28 -5
1584 -8 3460 -8 3355 1 3411 1 3464 20 61 22 144 95 165 145 l13 31 17 -40
c24 -52 80 -105 141 -132 l50 -23 1735 -1 c954 0 1746 3 1760 8 41 14 70 48
86 103 14 49 16 52 37 41 64 -34 174 -120 272 -213 81 -77 221 -110 351 -84
66 13 225 87 264 123 14 12 66 56 115 97 50 41 92 77 95 80 3 3 39 30 80 60
41 30 77 58 78 62 2 5 8 8 14 8 6 0 28 14 50 31 21 17 40 30 42 28 1 -2 12
-18 24 -36 13 -17 40 -40 62 -49 26 -12 49 -33 65 -59 14 -22 33 -49 42 -60
55 -62 159 -116 253 -131 78 -13 2524 -11 2601 2 165 28 282 145 329 330 58
225 -13 420 -190 521 -152 87 -218 144 -276 241 -82 135 -75 356 18 560 15 34
28 64 28 67 0 2 15 36 34 77 18 40 79 179 136 308 56 129 108 249 115 265 8
17 65 152 128 300 120 281 239 558 262 610 126 282 132 292 208 369 77 77 137
106 362 175 94 29 206 69 250 91 124 59 206 148 234 252 48 174 -24 355 -168
422 l-46 21 -5310 2 c-5206 2 -5312 2 -5374 -17 -70 -21 -134 -59 -168 -99
l-22 -26 -1 101 c0 161 -37 245 -138 315 -77 54 -175 78 -321 78 -66 0 -121
-2 -123 -4z m664 -1275 c129 -89 166 -135 172 -212 8 -96 -62 -327 -169 -563
-12 -27 -33 -75 -45 -105 -13 -30 -27 -59 -32 -65 -4 -5 -8 217 -8 493 0 276
2 502 5 502 2 0 37 -23 77 -50z m2365 18 c31 -9 38 -20 49 -70 7 -37 -15 -116
-62 -216 -24 -52 -44 -95 -44 -97 0 -2 -27 -60 -60 -130 -33 -70 -60 -128 -60
-130 0 -2 -22 -50 -49 -107 -70 -148 -120 -256 -143 -310 -15 -36 -26 -48 -42
-48 -131 -3 -939 -1 -941 2 -6 6 122 225 200 343 80 121 195 257 271 322 27
23 63 53 79 68 31 27 214 150 301 202 95 56 280 142 348 160 79 22 109 24 153
11z m-785 -2037 c15 -1 12 -16 -23 -113 -22 -62 -48 -138 -59 -168 -43 -127
-89 -250 -103 -276 -30 -57 -74 -93 -238 -197 -60 -37 -102 -75 -134 -120
l-21 -29 -47 60 c-26 33 -66 75 -90 93 -23 19 -44 36 -47 39 -9 9 -101 70
-106 70 -12 0 -97 88 -124 129 -76 114 -70 287 16 452 35 68 1 64 504 62 250
0 463 -1 472 -2z m-4491 -226 c0 -11 2 -38 4 -60 1 -22 5 -84 9 -137 l6 -97
-32 -23 c-39 -27 -61 -40 -151 -84 -223 -111 -454 -98 -488 28 -15 58 -5 94
90 300 11 26 21 51 21 57 0 33 25 36 283 36 251 1 257 0 258 -20z"/>
<path d="M1169 6488 c-5 -13 -3 -1177 2 -1188 6 -13 33 -15 166 -13 87 1 161
2 166 2 4 1 7 226 7 501 l0 500 335 0 335 0 0 -502 0 -503 163 1 c90 0 168 3
173 6 7 5 12 1139 5 1191 -1 6 -1349 11 -1352 5z"/>
<path d="M4748 6175 c-2 -2 -25 -5 -53 -8 -157 -17 -271 -80 -331 -183 -15
-25 -25 -47 -22 -49 7 -7 167 -30 273 -38 12 -1 28 10 40 27 37 55 94 77 199
77 152 -1 216 -35 216 -116 0 -27 -18 -39 -81 -49 -19 -3 -45 -8 -59 -11 -24
-5 -75 -13 -127 -20 -15 -2 -50 -6 -78 -10 -216 -29 -335 -80 -392 -167 -22
-33 -27 -51 -27 -102 1 -69 17 -106 66 -153 73 -69 182 -103 334 -104 125 0
218 20 318 70 42 22 78 36 80 32 2 -3 9 -23 15 -43 11 -33 17 -38 44 -39 36
-1 253 -1 279 0 14 1 12 10 -15 63 l-32 61 -2 246 c-3 285 -12 352 -53 398
-71 79 -196 114 -427 118 -89 2 -163 2 -165 0z m306 -631 c-41 -86 -207 -138
-326 -102 -47 14 -98 69 -98 105 0 16 12 37 34 58 37 34 48 38 270 75 65 10
121 22 125 26 3 3 7 -24 9 -60 2 -47 -2 -77 -14 -102z"/>
<path d="M6115 6173 c-69 -9 -189 -45 -242 -73 -146 -77 -222 -198 -228 -360
-8 -255 159 -423 465 -466 35 -5 239 -5 270 0 14 3 43 8 65 11 153 26 282 118
343 245 26 53 24 55 -73 64 -38 4 -81 8 -95 10 -14 2 -49 7 -77 10 l-52 7 -16
-38 c-36 -85 -106 -125 -219 -125 -102 1 -141 12 -195 57 -49 42 -71 95 -78
185 -14 198 72 294 262 294 112 0 187 -36 215 -104 12 -29 16 -31 49 -26 20 4
59 9 86 12 90 9 189 24 193 29 8 8 -46 89 -87 130 -90 92 -219 135 -421 139
-74 1 -148 1 -165 -1z"/>
<path d="M2961 5853 c-1 -170 -3 -321 -6 -337 -7 -52 -26 -61 -130 -61 l-95 0
0 -82 c0 -82 0 -83 28 -90 15 -4 97 -8 182 -8 139 0 160 3 200 22 52 25 67 37
98 77 38 50 45 100 48 346 1 129 3 238 3 243 1 4 100 7 221 7 l220 0 0 -339
c0 -262 3 -340 13 -343 6 -2 80 -3 162 -3 l150 1 0 434 0 435 -546 3 -546 2
-2 -307z"/>
<path d="M6899 6157 c-4 -7 -5 -164 -1 -174 3 -9 49 -12 170 -12 92 0 179 0
195 0 l27 -1 0 -342 0 -343 147 2 c82 1 155 2 164 2 15 1 17 33 17 337 0 184
2 337 5 340 3 3 91 6 196 6 133 1 191 4 192 12 4 35 4 153 1 163 -3 10 -129
13 -558 12 -305 0 -555 -1 -555 -2z"/>
<path d="M10422 5929 c-4 -4 -65 -37 -137 -74 -71 -37 -134 -71 -140 -76 -14
-10 -493 -250 -575 -287 -169 -77 -301 -136 -365 -164 -38 -16 -78 -34 -88
-39 -35 -19 -434 -178 -592 -237 -271 -101 -782 -272 -863 -288 -13 -2 -44
-12 -69 -20 -25 -9 -53 -17 -62 -19 -9 -3 -92 -25 -186 -49 -163 -44 -493
-124 -545 -132 -14 -3 -38 -7 -55 -11 -16 -4 -34 -8 -40 -9 -5 -1 -57 -11
-115 -23 -118 -23 -113 -22 -310 -56 -174 -29 -291 -47 -405 -60 -27 -4 -61
-8 -75 -10 -24 -4 -85 -11 -165 -19 -22 -3 -76 -8 -120 -12 -44 -3 -87 -8 -96
-9 -14 -3 -129 -11 -279 -20 -360 -23 -953 -23 -1250 0 -25 2 -85 6 -134 10
-49 3 -107 8 -129 10 -22 3 -69 7 -106 10 -36 3 -82 8 -101 10 -19 3 -60 7
-90 10 -30 3 -66 7 -80 10 -14 3 -43 7 -65 10 -40 4 -271 39 -336 50 -56 9
-142 25 -169 30 -14 3 -36 7 -50 10 -14 2 -70 14 -125 25 -55 12 -111 24 -125
26 -51 10 -277 64 -355 85 -715 192 -1325 420 -1940 726 -38 19 -65 31 -60 25
38 -37 639 -445 778 -528 27 -16 59 -36 73 -44 41 -26 162 -99 196 -119 18
-10 89 -51 156 -90 68 -39 126 -71 128 -71 2 0 22 -11 44 -25 133 -84 754
-387 1045 -510 88 -37 174 -73 190 -80 65 -29 344 -136 460 -178 234 -85 627
-213 680 -223 16 -3 32 -7 36 -10 11 -7 339 -99 389 -109 8 -2 69 -17 135 -33
237 -59 501 -116 705 -152 116 -20 144 -26 190 -35 28 -5 61 -10 135 -21 28
-3 59 -8 70 -10 29 -6 148 -23 203 -29 26 -3 58 -8 72 -10 14 -2 41 -7 60 -9
59 -9 381 -44 455 -51 39 -3 93 -7 120 -10 407 -36 728 -49 1215 -49 456 0
744 10 1120 39 30 2 87 6 125 9 39 3 86 8 105 10 19 3 67 8 105 11 39 3 84 8
100 10 17 2 57 7 90 10 69 7 139 15 175 20 14 2 63 9 110 15 47 6 96 13 110
15 51 7 106 15 150 20 25 3 52 8 60 10 8 2 35 7 60 10 25 3 52 8 60 10 8 2 35
7 60 10 50 6 160 26 319 57 57 11 115 22 128 24 48 8 71 13 169 33 55 12 109
23 120 25 10 3 42 10 69 16 28 6 57 13 65 15 168 37 480 115 650 162 91 25
203 56 250 68 189 51 740 225 935 296 435 156 1002 374 1144 440 24 11 64 29
90 39 25 10 76 32 114 49 37 17 69 31 71 31 7 0 461 208 601 275 329 158 644
319 1023 522 110 58 409 226 531 297 62 36 115 66 116 66 2 0 74 43 161 95 87
52 159 95 160 95 4 0 249 151 256 158 9 9 -6530 9 -6540 1z"/>
</g>
</svg>
